<mxfile host="Electron" modified="2024-05-03T08:12:41.069Z" agent="Mozilla/5.0 (Windows NT 10.0; Win64; x64) AppleWebKit/537.36 (KHTML, like Gecko) draw.io/24.2.5 Chrome/120.0.6099.109 Electron/28.1.0 Safari/537.36" etag="hRGlmOXInScTKQnim4XA" version="24.2.5" type="device">
  <diagram name="Page-1" id="hbQgY9UBODDWJIWXUfOT">
    <mxGraphModel dx="941" dy="644" grid="1" gridSize="10" guides="1" tooltips="1" connect="1" arrows="1" fold="1" page="1" pageScale="1" pageWidth="1654" pageHeight="1169" math="0" shadow="0">
      <root>
        <mxCell id="0" />
        <mxCell id="1" parent="0" />
        <mxCell id="nr08pbEp27feHkoOWgrQ-1" value="Player" style="rounded=0;whiteSpace=wrap;html=1;" vertex="1" parent="1">
          <mxGeometry x="170" y="270" width="120" height="60" as="geometry" />
        </mxCell>
        <mxCell id="nr08pbEp27feHkoOWgrQ-15" style="edgeStyle=orthogonalEdgeStyle;rounded=0;orthogonalLoop=1;jettySize=auto;html=1;exitX=0.5;exitY=1;exitDx=0;exitDy=0;" edge="1" parent="1" source="nr08pbEp27feHkoOWgrQ-2" target="nr08pbEp27feHkoOWgrQ-3">
          <mxGeometry relative="1" as="geometry" />
        </mxCell>
        <mxCell id="nr08pbEp27feHkoOWgrQ-2" value="GameObject" style="rounded=0;whiteSpace=wrap;html=1;" vertex="1" parent="1">
          <mxGeometry x="485" y="130" width="120" height="60" as="geometry" />
        </mxCell>
        <mxCell id="nr08pbEp27feHkoOWgrQ-3" value="Location" style="swimlane;fontStyle=0;childLayout=stackLayout;horizontal=1;startSize=30;horizontalStack=0;resizeParent=1;resizeParentMax=0;resizeLast=0;collapsible=1;marginBottom=0;whiteSpace=wrap;html=1;" vertex="1" parent="1">
          <mxGeometry x="410" y="270" width="270" height="60" as="geometry" />
        </mxCell>
        <mxCell id="nr08pbEp27feHkoOWgrQ-4" value="- _inventory: Inventory" style="text;strokeColor=none;fillColor=none;align=left;verticalAlign=middle;spacingLeft=4;spacingRight=4;overflow=hidden;points=[[0,0.5],[1,0.5]];portConstraint=eastwest;rotatable=0;whiteSpace=wrap;html=1;" vertex="1" parent="nr08pbEp27feHkoOWgrQ-3">
          <mxGeometry y="30" width="270" height="30" as="geometry" />
        </mxCell>
        <mxCell id="nr08pbEp27feHkoOWgrQ-20" style="edgeStyle=orthogonalEdgeStyle;rounded=0;orthogonalLoop=1;jettySize=auto;html=1;exitX=0.5;exitY=1;exitDx=0;exitDy=0;" edge="1" parent="1" source="nr08pbEp27feHkoOWgrQ-10" target="nr08pbEp27feHkoOWgrQ-19">
          <mxGeometry relative="1" as="geometry" />
        </mxCell>
        <mxCell id="nr08pbEp27feHkoOWgrQ-21" value="&amp;lt;&amp;lt;Implements&amp;gt;&amp;gt;" style="edgeLabel;html=1;align=center;verticalAlign=middle;resizable=0;points=[];" vertex="1" connectable="0" parent="nr08pbEp27feHkoOWgrQ-20">
          <mxGeometry x="-0.0182" y="-3" relative="1" as="geometry">
            <mxPoint as="offset" />
          </mxGeometry>
        </mxCell>
        <mxCell id="nr08pbEp27feHkoOWgrQ-10" value="" style="swimlane;startSize=0;" vertex="1" parent="1">
          <mxGeometry x="410" y="330" width="270" height="140" as="geometry" />
        </mxCell>
        <mxCell id="nr08pbEp27feHkoOWgrQ-8" value="+ Location (string name, string desc)" style="text;strokeColor=none;fillColor=none;align=left;verticalAlign=middle;spacingLeft=4;spacingRight=4;overflow=hidden;points=[[0,0.5],[1,0.5]];portConstraint=eastwest;rotatable=0;whiteSpace=wrap;html=1;" vertex="1" parent="nr08pbEp27feHkoOWgrQ-10">
          <mxGeometry width="270" height="30" as="geometry" />
        </mxCell>
        <mxCell id="nr08pbEp27feHkoOWgrQ-7" value="+ Locate (string id): GameObject" style="text;strokeColor=none;fillColor=none;align=left;verticalAlign=middle;spacingLeft=4;spacingRight=4;overflow=hidden;points=[[0,0.5],[1,0.5]];portConstraint=eastwest;rotatable=0;whiteSpace=wrap;html=1;" vertex="1" parent="nr08pbEp27feHkoOWgrQ-10">
          <mxGeometry y="30" width="270" height="30" as="geometry" />
        </mxCell>
        <mxCell id="nr08pbEp27feHkoOWgrQ-11" value="+ FullDescription: string &amp;lt;&amp;lt;readonly, property&amp;gt;&amp;gt;" style="text;strokeColor=none;fillColor=none;align=left;verticalAlign=middle;spacingLeft=4;spacingRight=4;overflow=hidden;points=[[0,0.5],[1,0.5]];portConstraint=eastwest;rotatable=0;whiteSpace=wrap;html=1;" vertex="1" parent="nr08pbEp27feHkoOWgrQ-10">
          <mxGeometry y="60" width="270" height="30" as="geometry" />
        </mxCell>
        <mxCell id="nr08pbEp27feHkoOWgrQ-12" value="+ Inventory: Inventory &amp;lt;&amp;lt;readonly, property&amp;gt;&amp;gt;" style="text;strokeColor=none;fillColor=none;align=left;verticalAlign=middle;spacingLeft=4;spacingRight=4;overflow=hidden;points=[[0,0.5],[1,0.5]];portConstraint=eastwest;rotatable=0;whiteSpace=wrap;html=1;" vertex="1" parent="nr08pbEp27feHkoOWgrQ-10">
          <mxGeometry y="90" width="270" height="30" as="geometry" />
        </mxCell>
        <mxCell id="nr08pbEp27feHkoOWgrQ-18" style="edgeStyle=orthogonalEdgeStyle;rounded=0;orthogonalLoop=1;jettySize=auto;html=1;exitX=1;exitY=0.5;exitDx=0;exitDy=0;entryX=0.024;entryY=0.1;entryDx=0;entryDy=0;entryPerimeter=0;" edge="1" parent="1" source="nr08pbEp27feHkoOWgrQ-1" target="nr08pbEp27feHkoOWgrQ-4">
          <mxGeometry relative="1" as="geometry" />
        </mxCell>
        <mxCell id="nr08pbEp27feHkoOWgrQ-19" value="&amp;lt;&amp;lt;interface&amp;gt;&amp;gt;&lt;div&gt;IHaveInventory&lt;/div&gt;" style="rounded=0;whiteSpace=wrap;html=1;" vertex="1" parent="1">
          <mxGeometry x="485" y="580" width="120" height="60" as="geometry" />
        </mxCell>
      </root>
    </mxGraphModel>
  </diagram>
</mxfile>
